<svg width="488" height="167" viewBox="0 0 488 167" fill="none" xmlns="http://www.w3.org/2000/svg">
<g clip-path="url(#clip0_3840_384)">
<path d="M109.64 163.23H101.93C95.0205 163.23 88.1105 163.1 81.2105 163.23C75.7505 163.36 71.6205 161.16 68.1505 157.11C61.6305 149.57 55.0005 142.1 48.4105 134.58C47.6705 133.93 46.6305 133.58 46.3305 132.48C45.0205 131.4 44.5205 129.57 42.8905 128.78C38.9073 124.834 35.2643 120.559 32.0005 116L30.6505 114.49C27.9205 114.37 28.8305 116.49 28.8205 117.75C28.7505 128.57 28.8205 139.38 28.7705 150.19C28.7705 151.94 29.0505 153.79 27.5505 155.19L26.7405 156.63C26.6305 157.78 25.7405 158.32 24.9105 158.9C23.2224 160.504 21.2065 161.722 19.0019 162.472C16.7972 163.221 14.4563 163.483 12.1405 163.24C8.37049 162.94 3.39048 164.84 1.14048 162.5C-1.10952 160.16 0.520485 155.25 0.510485 151.5C0.503818 102.733 0.480485 53.9832 0.440485 5.24987C0.440485 2.10987 1.14049 1.09987 4.34049 1.34987C10.0005 1.79987 15.7905 0.62987 21.3405 2.85987C23.4965 3.60518 25.2855 5.14731 26.3405 7.16987C28.2305 8.00987 28.2605 9.57987 28.1705 11.1699V11.3199C28.1705 11.4399 28.1705 11.5499 28.1705 11.6599C28.2292 12.6378 28.162 13.6191 27.9705 14.5799C27.9751 14.6231 27.9751 14.6667 27.9705 14.7099C27.8972 19.6099 27.8572 24.5132 27.8505 29.4199C27.8505 36.9099 27.8505 44.4199 27.8505 51.8999C27.8505 53.4099 27.8505 54.8999 27.8505 56.4399C27.8505 60.5999 27.8505 64.7632 27.8505 68.9299C27.8505 70.8299 27.8505 72.7299 27.8505 74.6299C27.8505 78.0999 27.8505 81.6299 27.8505 85.0499C27.8505 85.6199 27.8505 86.1899 27.8505 86.7599C27.8505 86.9699 27.8505 87.1799 27.8505 87.3899C27.7481 87.8702 27.7627 88.368 27.8933 88.8415C28.0238 89.3149 28.2664 89.7499 28.6005 90.1099C28.6605 91.3999 28.3405 92.7399 29.2905 94.4099L37.2905 84.5399C37.9576 83.1801 38.901 81.9744 40.0605 80.9999C40.5905 79.4499 42.0105 78.5999 42.8805 77.3199L45.6305 74.3199C46.6305 73.5899 46.5605 71.9499 48.0105 71.6499C53.0771 65.7299 58.1505 59.8065 63.2305 53.8799C64.2612 52.5614 65.5521 51.4691 67.023 50.6708C68.4939 49.8726 70.1133 49.3855 71.7805 49.2399C81.7805 48.5199 91.7205 49.1599 102.58 48.8599L77.6805 77.1999C77.4478 78.0393 77.0151 78.8099 76.4195 79.4456C75.8239 80.0813 75.0831 80.5631 74.2605 80.8499L71.4305 84.4899C70.875 85.329 70.145 86.0384 69.2905 86.5699V86.6199C67.8105 88.6799 67.0105 91.3399 64.2905 92.2799C61.4805 95.2799 58.7105 98.3999 55.8405 101.37C54.7105 102.54 55.0405 103.37 55.9905 104.37C59.8905 108.5 63.7505 112.67 67.6205 116.83C68.9207 117.737 69.9867 118.94 70.7305 120.34C71.1595 121.248 71.8578 122.002 72.7305 122.5C75.889 124.895 78.5833 127.846 80.6805 131.21L87.2005 138.92C87.7747 139.726 88.4465 140.458 89.2005 141.1L109.64 163.23Z" fill="#4F46BA"/>
<path d="M223.881 68.0796C222.541 64.6796 219.461 62.9796 216.881 60.8296H216.821C215.512 58.7627 213.491 57.247 211.141 56.5696C200.255 49.595 187.501 46.1065 174.581 46.5696C162.624 46.9044 151.015 50.6631 141.131 57.3996C141.001 57.4596 140.881 57.5096 140.761 57.5796C139.753 58.0204 138.822 58.6178 138.001 59.3496L136.481 60.8096C135.715 61.4077 135.041 62.1153 134.481 62.9096L134.421 62.9596C133.797 63.1856 133.284 63.6443 132.991 64.2396C132.535 64.6186 132.107 65.0296 131.711 65.4696C120.361 79.9996 115.711 96.4696 118.111 114.72C120.761 135.22 130.611 151.05 149.631 160.25C169.781 169.99 203.241 169.55 223.701 145.18C224.527 144.771 225.242 144.169 225.783 143.423C226.325 142.678 226.678 141.812 226.811 140.9L227.231 140.18C228.811 139.18 228.911 137.41 229.691 136C233.196 128.573 235.388 120.595 236.171 112.42C237.391 96.1496 233.641 81.2896 223.881 68.0796ZM184.321 139.13C176.481 140.9 168.711 140.48 161.631 135.99C161.721 134.75 161.521 133.66 160.211 133.12C160.211 133.12 160.211 133.07 160.211 133.04C160.591 132.98 161.071 132.25 161.131 131.76C161.151 131.617 161.14 131.472 161.099 131.334C161.058 131.196 160.987 131.068 160.892 130.96C160.797 130.852 160.68 130.765 160.549 130.707C160.417 130.648 160.275 130.618 160.131 130.62C159.471 130.69 159.351 131.36 159.131 131.89C159.191 132.53 159.631 133.06 160.131 133.05C160.127 133.08 160.127 133.11 160.131 133.14L158.621 133.98C157.961 132.39 156.991 131.18 155.121 130.98C155.159 130.699 155.135 130.414 155.051 130.144C154.967 129.873 154.824 129.625 154.634 129.416C154.443 129.207 154.208 129.043 153.947 128.934C153.685 128.826 153.403 128.777 153.121 128.79L153.051 128.69C154.561 125.94 152.751 125.53 150.671 125.3C143.301 112.89 144.251 94.8496 152.821 84.2996C154.451 83.6196 155.711 82.6396 155.821 80.7096C155.937 80.3837 156.131 80.0907 156.385 79.8557C156.639 79.6206 156.947 79.4505 157.281 79.3596C158.281 79.2196 160.711 81.0396 159.371 77.7996C170.661 68.4696 194.001 70.5896 201.851 86.9996C201.851 88.4796 202.081 89.8396 203.851 90.1796C204.091 90.6996 204.331 91.1796 204.561 91.7396C204.751 93.2396 204.811 94.7896 206.211 95.7996C212.701 114.28 202.301 135.07 184.321 139.13Z" fill="#4F46BA"/>
<path d="M486.181 160C472.841 165.44 449.331 167.86 435.521 155.6C428.221 149.12 424.931 140.82 423.711 131.45C422.461 121.83 423.401 112.15 423.091 104.14C423.091 94.7397 422.951 86.9797 423.161 79.2397C423.241 76.3097 422.271 75.6497 419.551 75.7597C414.551 75.9597 409.551 75.7597 404.551 75.8597C402.321 75.9297 401.651 75.1997 401.771 73.0197C401.961 69.6897 401.681 66.3297 401.951 63.0197C402.491 56.2297 407.101 52.0197 413.881 51.5897C416.881 51.4097 421.051 53.0497 422.681 50.7697C424.161 48.6997 423.111 44.7697 423.121 41.6997C423.121 34.6997 423.221 27.6197 423.121 20.5897C423.071 18.3397 423.781 17.7197 425.951 17.7997C430.131 17.9597 434.311 17.8497 438.481 17.7997C446.661 17.7997 451.341 22.3097 451.481 30.5897C451.581 36.4297 451.671 42.2897 451.481 48.1197C451.361 51.0497 452.371 51.6897 455.101 51.6297C463.341 51.4597 471.571 51.6297 479.811 51.5097C482.541 51.4497 483.371 52.3097 483.171 54.9597C482.961 57.7997 483.171 60.6797 483.111 63.5397C482.861 70.9697 477.981 75.7197 470.541 75.7797C465.051 75.7797 459.541 75.8597 454.071 75.7797C452.071 75.7797 451.071 76.0897 451.131 78.4697C451.241 93.3797 451.061 108.29 451.241 123.2C451.361 133.69 457.011 138.93 467.481 138.8C468.671 138.8 469.861 138.67 471.041 138.55C473.544 138.245 476.078 138.776 478.248 140.06C480.418 141.344 482.103 143.309 483.041 145.65C484.591 149.52 485.741 153.54 487.161 157.46C487.501 158.71 487.511 159.49 486.181 160Z" fill="#4F46BA"/>
<path d="M277 159.59C277 162.59 276.21 163.52 273.24 163.29C269.8 163.02 266.33 163.29 262.87 163.2C255.26 163.01 249.05 157.2 249.03 149.6C249 101.05 249 52.5 249 4.00005C249 1.92005 249.69 1.35005 251.67 1.43005C255.24 1.56005 258.82 1.43005 262.4 1.48005C271.18 1.63005 276.96 7.38005 276.98 16.15C277.027 40.15 277.027 64.1267 276.98 88.08C277 111.88 276.89 135.74 277 159.59Z" fill="#4F46BA"/>
<path d="M330.11 160.29C330.11 162.65 329.45 163.41 327.11 163.29C323.9 163.11 320.67 163.29 317.45 163.29C307.95 163.23 302.13 157.42 302.11 147.84C302.11 128.51 302.11 109.19 302.11 89.8399C302.11 85.4199 302.11 81.0099 302.11 76.5999C302.11 52.8599 302.19 29.1199 302.02 5.38993C302.02 1.95993 303.02 1.12993 306.2 1.38993C309.38 1.64993 312.64 1.38993 315.86 1.45993C324.14 1.61993 330.04 7.45993 330.04 15.7599C330.086 63.9199 330.11 112.097 330.11 160.29Z" fill="#4F46BA"/>
<path d="M387.26 104.47C387.26 90.6497 387.31 76.8197 387.26 62.9997C387.26 54.4897 381.39 48.6697 372.88 48.5397C368.83 48.4697 364.78 48.6097 360.73 48.6597C360.533 48.9938 360.407 49.3648 360.36 49.7497C360.306 49.3723 360.187 49.007 360.01 48.6697C358.68 49.1197 359.2 50.2597 359.2 51.0997C359.2 83.7664 359.2 116.433 359.2 149.1C359.2 157.1 365.2 163.01 373.25 163.19C376.82 163.27 380.42 163.03 383.98 163.27C386.68 163.46 387.35 162.6 387.33 159.92C387.21 141.42 387.27 123 387.26 104.47ZM360.35 143.07C360.35 112.89 360.35 82.7131 360.35 52.5397C360.35 52.2097 360.35 51.8897 360.35 51.5397C360.355 51.6197 360.355 51.6998 360.35 51.7797C360.35 82.6731 360.35 113.566 360.35 144.46C360.35 145.06 360.29 145.66 360.35 146.15C360.24 145.26 360.35 144.16 360.35 143.07Z" fill="#4F46BA"/>
<path d="M388.571 24.2098C388.161 24.9998 388.271 26.1098 387.161 26.4398C382.801 32.4398 374.081 34.8598 366.571 32.0798C359.061 29.2998 355.281 22.3498 356.631 13.7198C357.091 10.7798 357.851 7.90983 360.191 5.71983C360.881 5.26983 361.471 4.71983 362.191 4.21983C362.911 3.71983 362.831 2.48983 364.031 2.69983C364.94 2.49754 365.78 2.06345 366.471 1.43983C369.531 -0.350171 372.941 -0.000171205 376.301 -0.000171205C376.555 0.150468 376.838 0.245877 377.131 0.279829C378.181 0.409829 379.381 0.0598288 380.071 1.27983C380.316 1.57121 380.622 1.8048 380.968 1.96385C381.314 2.12291 381.69 2.2035 382.071 2.19983C382.852 2.36629 383.586 2.70375 384.22 3.18791C384.855 3.67207 385.374 4.29089 385.741 4.99983C390.521 10.8598 390.161 17.4398 388.571 24.2098Z" fill="#4F46BA"/>
<path d="M360.71 48.6597V146.55H360V48.6697L360.71 48.6597Z" fill="#4F46BA"/>
<path d="M28.4908 88.7698C28.4908 89.2398 28.4908 89.6998 28.4908 90.1698L27.0008 90.9998C27.0008 66.7998 27.0008 42.5731 27.0008 18.3198C27.0008 16.9598 26.4608 15.4398 27.6908 14.2598C27.7491 14.3693 27.7993 14.4829 27.8408 14.5998C28.1251 15.7474 28.1862 16.939 28.0208 18.1098C28.0208 40.3698 28.0208 62.6331 28.0208 84.8998C28.1108 86.2098 27.7208 87.5598 28.4908 88.7698Z" fill="#4F46BA"/>
<path d="M28.4912 88.7697C28.1013 88.4239 27.8345 87.9606 27.7312 87.4497C27.6313 86.6729 27.6313 85.8865 27.7312 85.1097C27.7409 84.9766 27.7409 84.8429 27.7312 84.7097C27.7312 79.4697 27.7312 74.2297 27.7312 68.9897C27.7312 64.8297 27.7312 60.6597 27.7312 56.4997C27.7312 54.9897 27.7312 53.4997 27.7312 51.9597V14.2997C27.7312 13.2997 27.8012 12.2997 27.8312 11.2997C27.9186 11.2692 28.0138 11.2692 28.1012 11.2997C28.2312 11.2997 28.3312 11.3997 28.3912 11.5697C28.8912 37.2497 28.7312 62.9997 28.4912 88.7697Z" fill="#4F46BA"/>
<path d="M89.1214 141.06C88.5723 141.022 88.0589 140.774 87.6868 140.369C87.3147 139.963 87.1124 139.43 87.1214 138.88C88.0104 139.366 88.7136 140.132 89.1214 141.06Z" fill="#3D51C6"/>
<path d="M366.44 1.48975C366.23 3.08975 365.06 2.81975 364 2.74975C364.288 2.37232 364.657 2.06354 365.078 1.84565C365.5 1.62777 365.965 1.50621 366.44 1.48975Z" fill="#564AAC"/>
<path d="M362.15 4.27005C361.57 4.87005 361.82 6.54005 360.15 5.77005C360.61 5.00005 361.08 4.23005 362.15 4.27005Z" fill="#564AAC"/>
<path d="M19.9306 7.66996C20.5106 6.66996 19.1806 5.47995 20.0706 4.74995C20.5806 4.32995 21.1606 5.09995 21.4106 5.57995C22.0806 6.88995 20.6506 6.99995 19.9306 7.66996Z" fill="#5246B6"/>
</g>
<defs>
<clipPath id="clip0_3840_384">
<rect width="487.33" height="166.19" fill="white"/>
</clipPath>
</defs>
</svg>
